<svg width="947" height="947" viewBox="0 0 947 947" fill="none" xmlns="http://www.w3.org/2000/svg">
<circle cx="473.5" cy="473.5" r="473.5" fill="#E7F5FF"/>
<path d="M663.75 364C663.75 349.546 658.008 335.683 647.787 325.463C637.567 315.242 623.704 309.5 609.25 309.5H595.625V296.258C595.625 288.926 589.988 282.633 582.656 282.267C580.813 282.178 578.972 282.464 577.244 283.108C575.516 283.752 573.936 284.74 572.601 286.012C571.266 287.285 570.203 288.815 569.476 290.51C568.75 292.206 568.375 294.031 568.375 295.875V309.5H377.625V296.258C377.625 288.926 371.988 282.633 364.656 282.267C362.813 282.178 360.972 282.464 359.244 283.108C357.516 283.752 355.936 284.74 354.601 286.012C353.266 287.285 352.203 288.815 351.476 290.51C350.75 292.206 350.375 294.031 350.375 295.875V309.5H336.75C322.296 309.5 308.433 315.242 298.213 325.463C287.992 335.683 282.25 349.546 282.25 364V374.219C282.25 375.122 282.609 375.989 283.248 376.627C283.886 377.266 284.753 377.625 285.656 377.625H660.344C661.247 377.625 662.114 377.266 662.752 376.627C663.391 375.989 663.75 375.122 663.75 374.219V364ZM282.25 609.25C282.25 623.704 287.992 637.567 298.213 647.787C308.433 658.008 322.296 663.75 336.75 663.75H609.25C623.704 663.75 637.567 658.008 647.787 647.787C658.008 637.567 663.75 623.704 663.75 609.25V408.281C663.75 407.378 663.391 406.511 662.752 405.873C662.114 405.234 661.247 404.875 660.344 404.875H285.656C284.753 404.875 283.886 405.234 283.248 405.873C282.609 406.511 282.25 407.378 282.25 408.281V609.25Z" fill="#228BE6"/>
</svg>
